<mxfile modified="2024-05-20T12:41:21.265Z" host="Electron" agent="Mozilla/5.0 (X11; Linux x86_64) AppleWebKit/537.36 (KHTML, like Gecko) draw.io/24.4.0 Chrome/120.0.6099.109 Electron/28.1.0 Safari/537.36" etag="B4NJB1rkl_eWokNLJqi-" version="24.4.0" type="device">
  <diagram id="l8hXMBHkgcEJcSW0mbfh" name="Page-1">
    <mxGraphModel dx="917" dy="482" grid="1" gridSize="10" guides="1" tooltips="1" connect="1" arrows="1" fold="1" page="1" pageScale="1" pageWidth="1169" pageHeight="827" math="0" shadow="0">
      <root>
        <mxCell id="0" />
        <mxCell id="1" parent="0" />
        <mxCell id="5fzn8Fy4KT_bQaTVRo2v-15" value="" style="ellipse;shape=cloud;whiteSpace=wrap;html=1;rotation=45;" parent="1" vertex="1">
          <mxGeometry x="95" y="530" width="140" height="100" as="geometry" />
        </mxCell>
        <mxCell id="5fzn8Fy4KT_bQaTVRo2v-12" value="" style="ellipse;shape=cloud;whiteSpace=wrap;html=1;" parent="1" vertex="1">
          <mxGeometry x="120" y="450" width="140" height="100" as="geometry" />
        </mxCell>
        <mxCell id="D6tEvtKrUfXG-Pyescyl-3" value="" style="ellipse;shape=cloud;whiteSpace=wrap;html=1;" parent="1" vertex="1">
          <mxGeometry x="265" y="334" width="170" height="160" as="geometry" />
        </mxCell>
        <mxCell id="cmIliTEzf_1W-r9lub-7-33" value="" style="ellipse;shape=cloud;whiteSpace=wrap;html=1;" parent="1" vertex="1">
          <mxGeometry x="915" y="260" width="90" height="190" as="geometry" />
        </mxCell>
        <mxCell id="cmIliTEzf_1W-r9lub-7-30" value="" style="ellipse;shape=cloud;whiteSpace=wrap;html=1;" parent="1" vertex="1">
          <mxGeometry x="995" y="390" width="130" height="100" as="geometry" />
        </mxCell>
        <mxCell id="cmIliTEzf_1W-r9lub-7-28" value="" style="ellipse;shape=cloud;whiteSpace=wrap;html=1;" parent="1" vertex="1">
          <mxGeometry x="980" y="230" width="130" height="100" as="geometry" />
        </mxCell>
        <mxCell id="cmIliTEzf_1W-r9lub-7-29" value="" style="ellipse;shape=cloud;whiteSpace=wrap;html=1;" parent="1" vertex="1">
          <mxGeometry x="760" y="230" width="170" height="100" as="geometry" />
        </mxCell>
        <mxCell id="cmIliTEzf_1W-r9lub-7-27" value="" style="ellipse;shape=cloud;whiteSpace=wrap;html=1;" parent="1" vertex="1">
          <mxGeometry x="750" y="390" width="180" height="100" as="geometry" />
        </mxCell>
        <mxCell id="cmIliTEzf_1W-r9lub-7-25" value="" style="ellipse;shape=cloud;whiteSpace=wrap;html=1;" parent="1" vertex="1">
          <mxGeometry x="410" y="270" width="350" height="210" as="geometry" />
        </mxCell>
        <mxCell id="cmIliTEzf_1W-r9lub-7-21" value="" style="ellipse;shape=cloud;whiteSpace=wrap;html=1;" parent="1" vertex="1">
          <mxGeometry x="265" y="200" width="205" height="180" as="geometry" />
        </mxCell>
        <mxCell id="cmIliTEzf_1W-r9lub-7-2" value="" style="ellipse;shape=cloud;whiteSpace=wrap;html=1;" parent="1" vertex="1">
          <mxGeometry x="60" y="230" width="230" height="120" as="geometry" />
        </mxCell>
        <mxCell id="qgD5tTc_1KPC8Zkf11dO-2" style="edgeStyle=orthogonalEdgeStyle;rounded=0;orthogonalLoop=1;jettySize=auto;html=1;" parent="1" source="cmIliTEzf_1W-r9lub-7-3" target="qgD5tTc_1KPC8Zkf11dO-1" edge="1">
          <mxGeometry relative="1" as="geometry" />
        </mxCell>
        <mxCell id="cmIliTEzf_1W-r9lub-7-3" value="" style="fontColor=#0066CC;verticalAlign=top;verticalLabelPosition=bottom;labelPosition=center;align=center;html=1;outlineConnect=0;fillColor=#CCCCCC;strokeColor=#6881B3;gradientColor=none;gradientDirection=north;strokeWidth=2;shape=mxgraph.networks.switch;" parent="1" vertex="1">
          <mxGeometry x="380" y="350" width="100" height="30" as="geometry" />
        </mxCell>
        <mxCell id="cmIliTEzf_1W-r9lub-7-5" value="" style="ellipse;shape=cloud;whiteSpace=wrap;html=1;" parent="1" vertex="1">
          <mxGeometry x="220" y="470" width="70" height="160" as="geometry" />
        </mxCell>
        <mxCell id="cmIliTEzf_1W-r9lub-7-4" value="" style="fontColor=#0066CC;verticalAlign=top;verticalLabelPosition=bottom;labelPosition=center;align=center;html=1;outlineConnect=0;fillColor=#CCCCCC;strokeColor=#6881B3;gradientColor=none;gradientDirection=north;strokeWidth=2;shape=mxgraph.networks.desktop_pc;direction=west;" parent="1" vertex="1">
          <mxGeometry x="80" y="240" width="30" height="60" as="geometry" />
        </mxCell>
        <mxCell id="cmIliTEzf_1W-r9lub-7-6" value="" style="fontColor=#0066CC;verticalAlign=top;verticalLabelPosition=bottom;labelPosition=center;align=center;html=1;outlineConnect=0;fillColor=#CCCCCC;strokeColor=#6881B3;gradientColor=none;gradientDirection=north;strokeWidth=2;shape=mxgraph.networks.desktop_pc;direction=west;" parent="1" vertex="1">
          <mxGeometry x="120" y="490" width="30" height="60" as="geometry" />
        </mxCell>
        <mxCell id="cmIliTEzf_1W-r9lub-7-7" value="" style="fontColor=#0066CC;verticalAlign=top;verticalLabelPosition=bottom;labelPosition=center;align=center;html=1;outlineConnect=0;fillColor=#CCCCCC;strokeColor=#6881B3;gradientColor=none;gradientDirection=north;strokeWidth=2;shape=mxgraph.networks.web_server;" parent="1" vertex="1">
          <mxGeometry x="215" y="590" width="85" height="75" as="geometry" />
        </mxCell>
        <mxCell id="cmIliTEzf_1W-r9lub-7-8" value="" style="fontColor=#0066CC;verticalAlign=top;verticalLabelPosition=bottom;labelPosition=center;align=center;html=1;outlineConnect=0;fillColor=#CCCCCC;strokeColor=#6881B3;gradientColor=none;gradientDirection=north;strokeWidth=2;shape=mxgraph.networks.modem;" parent="1" vertex="1">
          <mxGeometry x="245" y="460" width="85" height="30" as="geometry" />
        </mxCell>
        <mxCell id="cmIliTEzf_1W-r9lub-7-9" value="" style="fontColor=#0066CC;verticalAlign=top;verticalLabelPosition=bottom;labelPosition=center;align=center;html=1;outlineConnect=0;fillColor=#CCCCCC;strokeColor=#6881B3;gradientColor=none;gradientDirection=north;strokeWidth=2;shape=mxgraph.networks.modem;" parent="1" vertex="1">
          <mxGeometry x="240" y="275" width="100" height="30" as="geometry" />
        </mxCell>
        <mxCell id="qgD5tTc_1KPC8Zkf11dO-3" style="edgeStyle=orthogonalEdgeStyle;rounded=0;orthogonalLoop=1;jettySize=auto;html=1;" parent="1" source="cmIliTEzf_1W-r9lub-7-11" target="qgD5tTc_1KPC8Zkf11dO-1" edge="1">
          <mxGeometry relative="1" as="geometry" />
        </mxCell>
        <mxCell id="cmIliTEzf_1W-r9lub-7-11" value="" style="fontColor=#0066CC;verticalAlign=top;verticalLabelPosition=bottom;labelPosition=center;align=center;html=1;outlineConnect=0;fillColor=#CCCCCC;strokeColor=#6881B3;gradientColor=none;gradientDirection=north;strokeWidth=2;shape=mxgraph.networks.router;" parent="1" vertex="1">
          <mxGeometry x="700" y="275" width="100" height="30" as="geometry" />
        </mxCell>
        <mxCell id="qgD5tTc_1KPC8Zkf11dO-4" style="edgeStyle=orthogonalEdgeStyle;rounded=0;orthogonalLoop=1;jettySize=auto;html=1;" parent="1" source="cmIliTEzf_1W-r9lub-7-12" target="qgD5tTc_1KPC8Zkf11dO-1" edge="1">
          <mxGeometry relative="1" as="geometry" />
        </mxCell>
        <mxCell id="cmIliTEzf_1W-r9lub-7-12" value="" style="fontColor=#0066CC;verticalAlign=top;verticalLabelPosition=bottom;labelPosition=center;align=center;html=1;outlineConnect=0;fillColor=#CCCCCC;strokeColor=#6881B3;gradientColor=none;gradientDirection=north;strokeWidth=2;shape=mxgraph.networks.router;" parent="1" vertex="1">
          <mxGeometry x="680" y="430" width="100" height="30" as="geometry" />
        </mxCell>
        <mxCell id="cmIliTEzf_1W-r9lub-7-13" value="" style="fontColor=#0066CC;verticalAlign=top;verticalLabelPosition=bottom;labelPosition=center;align=center;html=1;outlineConnect=0;fillColor=#CCCCCC;strokeColor=#6881B3;gradientColor=none;gradientDirection=north;strokeWidth=2;shape=mxgraph.networks.router;" parent="1" vertex="1">
          <mxGeometry x="910" y="420" width="100" height="30" as="geometry" />
        </mxCell>
        <mxCell id="cmIliTEzf_1W-r9lub-7-14" value="" style="fontColor=#0066CC;verticalAlign=top;verticalLabelPosition=bottom;labelPosition=center;align=center;html=1;outlineConnect=0;fillColor=#CCCCCC;strokeColor=#6881B3;gradientColor=none;gradientDirection=north;strokeWidth=2;shape=mxgraph.networks.router;" parent="1" vertex="1">
          <mxGeometry x="900" y="265" width="100" height="30" as="geometry" />
        </mxCell>
        <mxCell id="cmIliTEzf_1W-r9lub-7-18" value="" style="fontColor=#0066CC;verticalAlign=top;verticalLabelPosition=bottom;labelPosition=center;align=center;html=1;outlineConnect=0;fillColor=#CCCCCC;strokeColor=#6881B3;gradientColor=none;gradientDirection=north;strokeWidth=2;shape=mxgraph.networks.web_server;" parent="1" vertex="1">
          <mxGeometry x="1099" y="243.5" width="75" height="73" as="geometry" />
        </mxCell>
        <mxCell id="cmIliTEzf_1W-r9lub-7-19" value="" style="fontColor=#0066CC;verticalAlign=top;verticalLabelPosition=bottom;labelPosition=center;align=center;html=1;outlineConnect=0;fillColor=#CCCCCC;strokeColor=#6881B3;gradientColor=none;gradientDirection=north;strokeWidth=2;shape=mxgraph.networks.server;" parent="1" vertex="1">
          <mxGeometry x="1099" y="400" width="70" height="80" as="geometry" />
        </mxCell>
        <mxCell id="cmIliTEzf_1W-r9lub-7-31" value="Ma plage publique:&amp;nbsp;45.5.77.0/24&amp;nbsp;&lt;br&gt;On a 8 réseaux publiques. Donc 3 bits pour les réseaux. Chaque réseau aura un masque /27.&lt;br&gt;_ _ _&amp;nbsp; &amp;nbsp; &amp;nbsp;_ _ _ _ _&amp;nbsp;" style="text;html=1;align=center;verticalAlign=middle;whiteSpace=wrap;rounded=0;" parent="1" vertex="1">
          <mxGeometry x="90" y="60" width="330" height="100" as="geometry" />
        </mxCell>
        <mxCell id="cmIliTEzf_1W-r9lub-7-34" value="45.5.77.96/27" style="text;html=1;align=center;verticalAlign=middle;whiteSpace=wrap;rounded=0;" parent="1" vertex="1">
          <mxGeometry x="810" y="243" width="60" height="44" as="geometry" />
        </mxCell>
        <mxCell id="cmIliTEzf_1W-r9lub-7-35" value="45.5.77.32/27" style="text;html=1;align=center;verticalAlign=middle;whiteSpace=wrap;rounded=0;" parent="1" vertex="1">
          <mxGeometry x="1010" y="265" width="60" height="30" as="geometry" />
        </mxCell>
        <mxCell id="cmIliTEzf_1W-r9lub-7-36" value="45.5.77.0/27" style="text;html=1;align=center;verticalAlign=middle;whiteSpace=wrap;rounded=0;" parent="1" vertex="1">
          <mxGeometry x="1030" y="430" width="60" height="30" as="geometry" />
        </mxCell>
        <mxCell id="cmIliTEzf_1W-r9lub-7-37" value="45.5.77.128/27" style="text;html=1;align=center;verticalAlign=middle;whiteSpace=wrap;rounded=0;" parent="1" vertex="1">
          <mxGeometry x="815" y="414" width="60" height="30" as="geometry" />
        </mxCell>
        <mxCell id="cmIliTEzf_1W-r9lub-7-38" value="45.5.77.64/27" style="text;html=1;align=center;verticalAlign=middle;whiteSpace=wrap;rounded=0;" parent="1" vertex="1">
          <mxGeometry x="920" y="340" width="60" height="30" as="geometry" />
        </mxCell>
        <mxCell id="cmIliTEzf_1W-r9lub-7-39" value="45.5.77.160/27" style="text;html=1;align=center;verticalAlign=middle;whiteSpace=wrap;rounded=0;" parent="1" vertex="1">
          <mxGeometry x="650" y="346.5" width="60" height="30" as="geometry" />
        </mxCell>
        <mxCell id="cmIliTEzf_1W-r9lub-7-41" value="45.5.77.192/28" style="text;html=1;align=center;verticalAlign=middle;whiteSpace=wrap;rounded=0;" parent="1" vertex="1">
          <mxGeometry x="280" y="384" width="60" height="30" as="geometry" />
        </mxCell>
        <mxCell id="cmIliTEzf_1W-r9lub-7-43" value=".33" style="text;html=1;align=center;verticalAlign=middle;whiteSpace=wrap;rounded=0;" parent="1" vertex="1">
          <mxGeometry x="1099" y="213.5" width="60" height="30" as="geometry" />
        </mxCell>
        <mxCell id="cmIliTEzf_1W-r9lub-7-46" value="Les réseaux sont donc en:&lt;br&gt;.0/27&amp;nbsp; &amp;nbsp; .32/27&amp;nbsp; &amp;nbsp; &amp;nbsp;.64/27&amp;nbsp; &amp;nbsp; &amp;nbsp;.96/27&amp;nbsp; &amp;nbsp; &amp;nbsp;.128/27&amp;nbsp; &amp;nbsp; &amp;nbsp;.160/27&amp;nbsp; &amp;nbsp; &amp;nbsp;.192/27&amp;nbsp; &amp;nbsp; &amp;nbsp;.224/27" style="text;html=1;align=center;verticalAlign=middle;whiteSpace=wrap;rounded=0;" parent="1" vertex="1">
          <mxGeometry x="470" y="60" width="230" height="60" as="geometry" />
        </mxCell>
        <mxCell id="cmIliTEzf_1W-r9lub-7-48" value=".1" style="text;html=1;align=center;verticalAlign=middle;whiteSpace=wrap;rounded=0;" parent="1" vertex="1">
          <mxGeometry x="1104" y="370" width="60" height="30" as="geometry" />
        </mxCell>
        <mxCell id="cmIliTEzf_1W-r9lub-7-49" value=".34" style="text;html=1;align=center;verticalAlign=middle;whiteSpace=wrap;rounded=0;" parent="1" vertex="1">
          <mxGeometry x="960" y="228" width="60" height="30" as="geometry" />
        </mxCell>
        <mxCell id="cmIliTEzf_1W-r9lub-7-50" value=".65" style="text;html=1;align=center;verticalAlign=middle;whiteSpace=wrap;rounded=0;" parent="1" vertex="1">
          <mxGeometry x="930" y="295" width="60" height="30" as="geometry" />
        </mxCell>
        <mxCell id="cmIliTEzf_1W-r9lub-7-51" value=".66" style="text;html=1;align=center;verticalAlign=middle;whiteSpace=wrap;rounded=0;" parent="1" vertex="1">
          <mxGeometry x="935" y="390" width="60" height="30" as="geometry" />
        </mxCell>
        <mxCell id="cmIliTEzf_1W-r9lub-7-52" value=".129" style="text;html=1;align=center;verticalAlign=middle;whiteSpace=wrap;rounded=0;" parent="1" vertex="1">
          <mxGeometry x="870" y="435" width="60" height="30" as="geometry" />
        </mxCell>
        <mxCell id="cmIliTEzf_1W-r9lub-7-53" value=".130" style="text;html=1;align=center;verticalAlign=middle;whiteSpace=wrap;rounded=0;" parent="1" vertex="1">
          <mxGeometry x="760" y="444" width="60" height="30" as="geometry" />
        </mxCell>
        <mxCell id="cmIliTEzf_1W-r9lub-7-54" value=".97" style="text;html=1;align=center;verticalAlign=middle;whiteSpace=wrap;rounded=0;" parent="1" vertex="1">
          <mxGeometry x="855" y="265" width="60" height="30" as="geometry" />
        </mxCell>
        <mxCell id="cmIliTEzf_1W-r9lub-7-55" value=".98" style="text;html=1;align=center;verticalAlign=middle;whiteSpace=wrap;rounded=0;" parent="1" vertex="1">
          <mxGeometry x="780" y="280" width="60" height="30" as="geometry" />
        </mxCell>
        <mxCell id="cmIliTEzf_1W-r9lub-7-56" value=".162" style="text;html=1;align=center;verticalAlign=middle;whiteSpace=wrap;rounded=0;" parent="1" vertex="1">
          <mxGeometry x="670" y="405" width="60" height="30" as="geometry" />
        </mxCell>
        <mxCell id="cmIliTEzf_1W-r9lub-7-57" value=".161" style="text;html=1;align=center;verticalAlign=middle;whiteSpace=wrap;rounded=0;" parent="1" vertex="1">
          <mxGeometry x="650" y="310" width="60" height="30" as="geometry" />
        </mxCell>
        <mxCell id="cmIliTEzf_1W-r9lub-7-60" value=".209" style="text;html=1;align=center;verticalAlign=middle;whiteSpace=wrap;rounded=0;" parent="1" vertex="1">
          <mxGeometry x="350" y="316.5" width="60" height="30" as="geometry" />
        </mxCell>
        <mxCell id="cmIliTEzf_1W-r9lub-7-61" value=".210" style="text;html=1;align=center;verticalAlign=middle;whiteSpace=wrap;rounded=0;" parent="1" vertex="1">
          <mxGeometry x="320" y="286.5" width="60" height="30" as="geometry" />
        </mxCell>
        <mxCell id="QmN082Hiia21C6du366i-1" value="Serveur web" style="text;html=1;align=center;verticalAlign=middle;whiteSpace=wrap;rounded=0;" parent="1" vertex="1">
          <mxGeometry x="1169" y="258" width="60" height="30" as="geometry" />
        </mxCell>
        <mxCell id="QmN082Hiia21C6du366i-2" value="Serveur DNS" style="text;html=1;align=center;verticalAlign=middle;whiteSpace=wrap;rounded=0;" parent="1" vertex="1">
          <mxGeometry x="1174" y="420" width="60" height="30" as="geometry" />
        </mxCell>
        <mxCell id="QmN082Hiia21C6du366i-3" value="Routeur&lt;div&gt;Services&lt;/div&gt;" style="text;html=1;align=center;verticalAlign=middle;whiteSpace=wrap;rounded=0;" parent="1" vertex="1">
          <mxGeometry x="910" y="228" width="60" height="30" as="geometry" />
        </mxCell>
        <mxCell id="QmN082Hiia21C6du366i-4" value="Routeur services réseaux" style="text;html=1;align=center;verticalAlign=middle;whiteSpace=wrap;rounded=0;" parent="1" vertex="1">
          <mxGeometry x="920" y="474" width="60" height="30" as="geometry" />
        </mxCell>
        <mxCell id="QmN082Hiia21C6du366i-5" value="R2" style="text;html=1;align=center;verticalAlign=middle;whiteSpace=wrap;rounded=0;" parent="1" vertex="1">
          <mxGeometry x="710" y="465" width="60" height="30" as="geometry" />
        </mxCell>
        <mxCell id="QmN082Hiia21C6du366i-6" value="R1" style="text;html=1;align=center;verticalAlign=middle;whiteSpace=wrap;rounded=0;" parent="1" vertex="1">
          <mxGeometry x="710" y="240" width="60" height="30" as="geometry" />
        </mxCell>
        <mxCell id="QmN082Hiia21C6du366i-7" value="Routeur FAI" style="text;html=1;align=center;verticalAlign=middle;whiteSpace=wrap;rounded=0;" parent="1" vertex="1">
          <mxGeometry x="410" y="399" width="60" height="30" as="geometry" />
        </mxCell>
        <mxCell id="QmN082Hiia21C6du366i-8" value="Box 2" style="text;html=1;align=center;verticalAlign=middle;whiteSpace=wrap;rounded=0;" parent="1" vertex="1">
          <mxGeometry x="300" y="480" width="60" height="30" as="geometry" />
        </mxCell>
        <mxCell id="QmN082Hiia21C6du366i-9" value="Box 1" style="text;html=1;align=center;verticalAlign=middle;whiteSpace=wrap;rounded=0;" parent="1" vertex="1">
          <mxGeometry x="290" y="243" width="60" height="30" as="geometry" />
        </mxCell>
        <mxCell id="QmN082Hiia21C6du366i-11" value="Switch" style="text;html=1;align=center;verticalAlign=middle;whiteSpace=wrap;rounded=0;" parent="1" vertex="1">
          <mxGeometry x="550" y="400" width="60" height="30" as="geometry" />
        </mxCell>
        <mxCell id="D6tEvtKrUfXG-Pyescyl-1" value=".2" style="text;html=1;align=center;verticalAlign=middle;whiteSpace=wrap;rounded=0;" parent="1" vertex="1">
          <mxGeometry x="995" y="410" width="60" height="30" as="geometry" />
        </mxCell>
        <mxCell id="D6tEvtKrUfXG-Pyescyl-5" value=".194" style="text;html=1;align=center;verticalAlign=middle;whiteSpace=wrap;rounded=0;" parent="1" vertex="1">
          <mxGeometry x="300" y="440" width="60" height="30" as="geometry" />
        </mxCell>
        <mxCell id="D6tEvtKrUfXG-Pyescyl-6" value=".163" style="text;html=1;align=center;verticalAlign=middle;whiteSpace=wrap;rounded=0;" parent="1" vertex="1">
          <mxGeometry x="470" y="330" width="60" height="30" as="geometry" />
        </mxCell>
        <mxCell id="wHNNKZly2p6-GIU43fB2-5" value=".193" style="text;html=1;align=center;verticalAlign=middle;whiteSpace=wrap;rounded=0;" parent="1" vertex="1">
          <mxGeometry x="350" y="384" width="60" height="30" as="geometry" />
        </mxCell>
        <mxCell id="wHNNKZly2p6-GIU43fB2-6" value="45.5.77.208/28" style="text;html=1;align=center;verticalAlign=middle;whiteSpace=wrap;rounded=0;" parent="1" vertex="1">
          <mxGeometry x="380" y="250" width="60" height="30" as="geometry" />
        </mxCell>
        <mxCell id="qgD5tTc_1KPC8Zkf11dO-1" value="" style="fontColor=#0066CC;verticalAlign=top;verticalLabelPosition=bottom;labelPosition=center;align=center;html=1;outlineConnect=0;fillColor=#CCCCCC;strokeColor=#6881B3;gradientColor=none;gradientDirection=north;strokeWidth=2;shape=mxgraph.networks.switch;" parent="1" vertex="1">
          <mxGeometry x="535" y="354" width="100" height="30" as="geometry" />
        </mxCell>
        <mxCell id="5fzn8Fy4KT_bQaTVRo2v-1" value="Ma plage privée:&amp;nbsp;&lt;br&gt;192.168.159.128/25" style="text;html=1;align=center;verticalAlign=middle;resizable=0;points=[];autosize=1;strokeColor=none;fillColor=none;" parent="1" vertex="1">
          <mxGeometry x="315" y="13" width="130" height="40" as="geometry" />
        </mxCell>
        <mxCell id="5fzn8Fy4KT_bQaTVRo2v-2" value="192.168.159.128/26" style="text;html=1;align=center;verticalAlign=middle;resizable=0;points=[];autosize=1;strokeColor=none;fillColor=none;" parent="1" vertex="1">
          <mxGeometry x="100" y="305" width="130" height="30" as="geometry" />
        </mxCell>
        <mxCell id="5fzn8Fy4KT_bQaTVRo2v-3" value="192.168.159.192/28" style="text;html=1;align=center;verticalAlign=middle;resizable=0;points=[];autosize=1;strokeColor=none;fillColor=none;" parent="1" vertex="1">
          <mxGeometry x="265" y="535" width="130" height="30" as="geometry" />
        </mxCell>
        <mxCell id="5fzn8Fy4KT_bQaTVRo2v-4" value=".193" style="text;html=1;align=center;verticalAlign=middle;resizable=0;points=[];autosize=1;strokeColor=none;fillColor=none;" parent="1" vertex="1">
          <mxGeometry x="240" y="510" width="50" height="30" as="geometry" />
        </mxCell>
        <mxCell id="5fzn8Fy4KT_bQaTVRo2v-8" value=".225" style="text;html=1;align=center;verticalAlign=middle;resizable=0;points=[];autosize=1;strokeColor=none;fillColor=none;" parent="1" vertex="1">
          <mxGeometry x="195" y="474" width="50" height="30" as="geometry" />
        </mxCell>
        <mxCell id="5fzn8Fy4KT_bQaTVRo2v-9" value=".194" style="text;html=1;align=center;verticalAlign=middle;resizable=0;points=[];autosize=1;strokeColor=none;fillColor=none;" parent="1" vertex="1">
          <mxGeometry x="235" y="560" width="50" height="30" as="geometry" />
        </mxCell>
        <mxCell id="5fzn8Fy4KT_bQaTVRo2v-10" value=".129" style="text;html=1;align=center;verticalAlign=middle;resizable=0;points=[];autosize=1;strokeColor=none;fillColor=none;" parent="1" vertex="1">
          <mxGeometry x="195" y="250" width="50" height="30" as="geometry" />
        </mxCell>
        <mxCell id="5fzn8Fy4KT_bQaTVRo2v-11" value=".130" style="text;html=1;align=center;verticalAlign=middle;resizable=0;points=[];autosize=1;strokeColor=none;fillColor=none;" parent="1" vertex="1">
          <mxGeometry x="120" y="258" width="50" height="30" as="geometry" />
        </mxCell>
        <mxCell id="5fzn8Fy4KT_bQaTVRo2v-13" value=".226" style="text;html=1;align=center;verticalAlign=middle;resizable=0;points=[];autosize=1;strokeColor=none;fillColor=none;" parent="1" vertex="1">
          <mxGeometry x="140" y="480" width="50" height="30" as="geometry" />
        </mxCell>
        <mxCell id="5fzn8Fy4KT_bQaTVRo2v-16" value=".209" style="text;html=1;align=center;verticalAlign=middle;resizable=0;points=[];autosize=1;strokeColor=none;fillColor=none;" parent="1" vertex="1">
          <mxGeometry x="170" y="590" width="50" height="30" as="geometry" />
        </mxCell>
        <mxCell id="5fzn8Fy4KT_bQaTVRo2v-17" value=".210" style="text;html=1;align=center;verticalAlign=middle;resizable=0;points=[];autosize=1;strokeColor=none;fillColor=none;" parent="1" vertex="1">
          <mxGeometry x="110" y="550" width="50" height="30" as="geometry" />
        </mxCell>
        <mxCell id="5fzn8Fy4KT_bQaTVRo2v-18" value="192.168.159.208/28" style="text;html=1;align=center;verticalAlign=middle;resizable=0;points=[];autosize=1;strokeColor=none;fillColor=none;" parent="1" vertex="1">
          <mxGeometry x="10" y="600" width="130" height="30" as="geometry" />
        </mxCell>
        <mxCell id="5fzn8Fy4KT_bQaTVRo2v-19" value="192.168.159.224/28" style="text;html=1;align=center;verticalAlign=middle;resizable=0;points=[];autosize=1;strokeColor=none;fillColor=none;" parent="1" vertex="1">
          <mxGeometry x="130" y="440" width="130" height="30" as="geometry" />
        </mxCell>
      </root>
    </mxGraphModel>
  </diagram>
</mxfile>
